<svg width="265" height="265" viewBox="0 0 265 265" fill="none" xmlns="http://www.w3.org/2000/svg">
<rect width="265" height="265" fill="#F9FAFB"/>
<path d="M199.345 180.028H88.9445C87.2651 180.026 85.6551 179.358 84.4677 178.171C83.2802 176.984 82.6122 175.374 82.6104 173.694V114.768C82.6122 113.088 83.2802 111.478 84.4677 110.291C85.6551 109.103 87.2651 108.435 88.9445 108.434H199.345C201.024 108.435 202.634 109.103 203.822 110.291C205.009 111.478 205.677 113.088 205.679 114.768V173.694C205.677 175.374 205.009 176.984 203.822 178.171C202.634 179.358 201.024 180.026 199.345 180.028Z" fill="white"/>
<path d="M199.345 180.028H88.9445C87.2651 180.026 85.6551 179.358 84.4677 178.171C83.2802 176.984 82.6122 175.374 82.6104 173.694V114.768C82.6122 113.088 83.2802 111.478 84.4677 110.291C85.6551 109.103 87.2651 108.435 88.9445 108.434H199.345C201.024 108.435 202.634 109.103 203.822 110.291C205.009 111.478 205.677 113.088 205.679 114.768V173.694C205.677 175.374 205.009 176.984 203.822 178.171C202.634 179.358 201.024 180.026 199.345 180.028ZM88.9445 108.817C87.3669 108.819 85.8545 109.447 84.739 110.562C83.6235 111.678 82.996 113.19 82.9942 114.768V173.694C82.996 175.272 83.6235 176.784 84.739 177.9C85.8545 179.015 87.3669 179.643 88.9445 179.644H199.345C200.922 179.643 202.435 179.015 203.55 177.9C204.666 176.784 205.293 175.272 205.295 173.694V114.768C205.293 113.19 204.666 111.678 203.55 110.562C202.435 109.447 200.922 108.819 199.345 108.817H88.9445Z" fill="#F2F2F2"/>
<path d="M199.345 175.422H88.9443C88.4863 175.421 88.0472 175.239 87.7233 174.915C87.3995 174.592 87.2173 174.152 87.2168 173.695V114.768C87.2173 114.31 87.3995 113.871 87.7233 113.547C88.0472 113.223 88.4863 113.041 88.9443 113.041H199.345C199.803 113.041 200.242 113.223 200.566 113.547C200.889 113.871 201.072 114.31 201.072 114.768V173.695C201.072 174.152 200.889 174.592 200.566 174.915C200.242 175.239 199.803 175.421 199.345 175.422ZM88.9443 113.424C88.5881 113.425 88.2465 113.566 87.9947 113.818C87.7428 114.07 87.6011 114.412 87.6007 114.768V173.695C87.6011 174.051 87.7428 174.392 87.9947 174.644C88.2465 174.896 88.5881 175.038 88.9443 175.038H199.345C199.701 175.038 200.042 174.896 200.294 174.644C200.546 174.392 200.688 174.051 200.688 173.695V114.768C200.688 114.412 200.546 114.07 200.294 113.818C200.042 113.566 199.701 113.425 199.345 113.424H88.9443Z" fill="#F2F2F2"/>
<path d="M171.245 175.703L64.5299 147.414C62.9071 146.982 61.522 145.924 60.6784 144.472C59.8349 143.02 59.6017 141.293 60.0302 139.669L75.129 82.7095C75.5612 81.0868 76.6194 79.7017 78.0714 78.8581C79.5235 78.0145 81.2509 77.7814 82.8747 78.2099L189.589 106.498C191.212 106.93 192.597 107.988 193.441 109.44C194.284 110.892 194.518 112.62 194.089 114.244L178.99 171.203C178.558 172.826 177.5 174.211 176.048 175.054C174.596 175.898 172.868 176.131 171.245 175.703Z" fill="#F2F2F2"/>
<path d="M171.245 175.703L64.5299 147.414C62.9071 146.982 61.522 145.924 60.6784 144.472C59.8349 143.02 59.6017 141.293 60.0302 139.669L75.129 82.7095C75.5612 81.0868 76.6194 79.7017 78.0714 78.8581C79.5235 78.0145 81.2509 77.7814 82.8747 78.2099L189.589 106.498C191.212 106.93 192.597 107.988 193.441 109.44C194.284 110.892 194.518 112.62 194.089 114.244L178.99 171.203C178.558 172.826 177.5 174.211 176.048 175.054C174.596 175.898 172.868 176.131 171.245 175.703ZM82.7763 78.581C81.251 78.1785 79.6283 78.3975 78.2642 79.1899C76.9001 79.9823 75.9061 81.2835 75.5001 82.8079L60.4013 139.767C59.9988 141.293 60.2178 142.915 61.0102 144.279C61.8026 145.643 63.1038 146.637 64.6282 147.043L171.343 175.331C172.868 175.734 174.491 175.515 175.855 174.723C177.219 173.93 178.213 172.629 178.619 171.105L193.718 114.145C194.12 112.62 193.901 110.997 193.109 109.633C192.317 108.269 191.015 107.275 189.491 106.869L82.7763 78.581Z" fill="#E6E6E6"/>
<path d="M172.427 171.249L65.7121 142.961C65.2696 142.843 64.8918 142.555 64.6618 142.159C64.4317 141.763 64.3681 141.291 64.485 140.849L79.5838 83.8894C79.7017 83.4468 79.9903 83.0691 80.3863 82.839C80.7823 82.6089 81.2534 82.5454 81.6963 82.6622L188.411 110.95C188.854 111.068 189.231 111.357 189.461 111.753C189.691 112.149 189.755 112.62 189.638 113.063L174.539 170.022C174.421 170.465 174.133 170.842 173.737 171.072C173.341 171.302 172.87 171.366 172.427 171.249ZM81.5979 83.0333C81.2535 82.9424 80.887 82.9918 80.579 83.1708C80.271 83.3497 80.0465 83.6435 79.9549 83.9878L64.856 140.947C64.7652 141.291 64.8146 141.658 64.9935 141.966C65.1725 142.274 65.4663 142.498 65.8105 142.59L172.525 170.878C172.87 170.969 173.236 170.92 173.544 170.741C173.852 170.562 174.077 170.268 174.168 169.924L189.267 112.964C189.358 112.62 189.309 112.254 189.13 111.946C188.951 111.637 188.657 111.413 188.313 111.321L81.5979 83.0333Z" fill="white"/>
<path d="M175.734 187.898H65.3341C63.6548 187.896 62.0448 187.228 60.8573 186.041C59.6698 184.853 59.0019 183.243 59 181.564V122.637C59.0019 120.958 59.6698 119.348 60.8573 118.161C62.0448 116.973 63.6548 116.305 65.3341 116.303H175.734C177.414 116.305 179.024 116.973 180.211 118.161C181.399 119.348 182.067 120.958 182.069 122.637V181.564C182.067 183.243 181.399 184.853 180.211 186.041C179.024 187.228 177.414 187.896 175.734 187.898Z" fill="white"/>
<path d="M145.74 182.908H74.4471C74.3578 182.908 74.2686 182.906 74.1807 182.901L107.899 163.911C108.541 163.542 109.982 163.412 111.117 163.621C111.428 163.669 111.729 163.767 112.009 163.911L134.638 176.655L135.722 177.265L145.74 182.908Z" fill="#E6E6E6"/>
<path d="M168.231 182.908H106.568L118.517 177.264L119.377 176.858L134.948 169.504C135.969 169.022 138.425 168.992 139.625 169.413C139.705 169.442 139.78 169.472 139.849 169.504L168.231 182.908Z" fill="#E6E6E6"/>
<path d="M65.335 116.687C63.7574 116.688 62.245 117.316 61.1295 118.431C60.014 119.547 59.3866 121.059 59.3848 122.637V181.563C59.3866 183.141 60.014 184.653 61.1295 185.769C62.245 186.884 63.7574 187.512 65.335 187.513H175.735C177.313 187.512 178.825 186.884 179.941 185.769C181.056 184.653 181.684 183.141 181.686 181.563V122.637C181.684 121.059 181.056 119.547 179.941 118.431C178.825 117.316 177.313 116.688 175.735 116.687H65.335Z" fill="#3F3D56"/>
<path d="M175.734 183.291H65.3339C64.8759 183.291 64.4368 183.108 64.113 182.785C63.7891 182.461 63.607 182.022 63.6064 181.564V122.637C63.607 122.179 63.7891 121.74 64.113 121.416C64.4368 121.092 64.8759 120.91 65.3339 120.91H175.734C176.192 120.91 176.631 121.092 176.955 121.416C177.279 121.74 177.461 122.179 177.462 122.637V181.564C177.461 182.022 177.279 182.461 176.955 182.785C176.631 183.108 176.192 183.291 175.734 183.291ZM65.3339 121.294C64.9777 121.294 64.6362 121.436 64.3843 121.688C64.1324 121.939 63.9907 122.281 63.9903 122.637V181.564C63.9907 181.92 64.1324 182.261 64.3843 182.513C64.6362 182.765 64.9777 182.907 65.3339 182.907H175.734C176.091 182.907 176.432 182.765 176.684 182.513C176.936 182.261 177.078 181.92 177.078 181.564V122.637C177.078 122.281 176.936 121.939 176.684 121.688C176.432 121.436 176.091 121.294 175.734 121.294H65.3339Z" fill="#CCCCCC"/>
<path d="M151.137 131.695C157.699 131.695 163.019 126.376 163.019 119.814C163.019 113.251 157.699 107.932 151.137 107.932C144.575 107.932 139.255 113.251 139.255 119.814C139.255 126.376 144.575 131.695 151.137 131.695Z" fill="#FF6584"/>
<path d="M156.104 163.074C164.415 163.074 171.153 154.64 171.153 144.237C171.153 133.834 164.415 125.4 156.104 125.4C147.792 125.4 141.055 133.834 141.055 144.237C141.055 154.64 147.792 163.074 156.104 163.074Z" fill="#F2F2F2"/>
<path d="M156.144 140.45H156.185L156.929 183.116H155.358L156.144 140.45Z" fill="#CCCCCC"/>
<path d="M158.712 168.696C158.758 168.783 158.767 168.885 158.738 168.979C158.709 169.074 158.643 169.152 158.556 169.198L156.397 170.335L156.051 169.676L158.209 168.54C158.297 168.494 158.399 168.485 158.493 168.514C158.587 168.543 158.666 168.608 158.712 168.696Z" fill="#CCCCCC"/>
<path d="M112.837 163.074C121.148 163.074 127.886 154.64 127.886 144.237C127.886 133.834 121.148 125.4 112.837 125.4C104.526 125.4 97.7881 133.834 97.7881 144.237C97.7881 154.64 104.526 163.074 112.837 163.074Z" fill="#F2F2F2"/>
<path d="M115.447 169.4C115.401 169.313 115.322 169.248 115.228 169.218C115.134 169.189 115.032 169.199 114.944 169.245L113.438 170.038L112.921 140.449H112.88L112.095 183.115H113.666L113.452 170.871L115.291 169.903C115.378 169.857 115.444 169.778 115.473 169.684C115.502 169.59 115.493 169.488 115.447 169.4Z" fill="#CCCCCC"/>
<path d="M134.419 100.827C144.95 100.827 153.51 120.67 153.51 133.852C153.51 147.034 144.973 157.72 134.442 157.72C123.91 157.72 115.373 147.034 115.373 133.852C115.373 120.67 123.888 100.827 134.419 100.827Z" fill="#FF7315"/>
<path d="M137.746 165.545C137.717 165.491 137.677 165.442 137.63 165.402C137.582 165.363 137.527 165.333 137.468 165.315C137.409 165.296 137.347 165.29 137.285 165.295C137.224 165.301 137.164 165.319 137.109 165.348L135.2 166.353L134.546 128.86H134.493L133.498 182.923H135.489L135.218 167.409L137.548 166.182C137.603 166.153 137.652 166.114 137.691 166.066C137.731 166.019 137.761 165.964 137.779 165.905C137.797 165.846 137.804 165.783 137.798 165.722C137.792 165.66 137.775 165.6 137.746 165.545Z" fill="#3F3D56"/>
<path d="M176.119 187.514H65.7189C64.0396 187.512 62.4295 186.844 61.2421 185.657C60.0546 184.469 59.3867 182.859 59.3848 181.18V122.254C59.3867 120.574 60.0546 118.964 61.2421 117.777C62.4295 116.589 64.0396 115.921 65.7189 115.919H176.119C177.799 115.921 179.409 116.589 180.596 117.777C181.784 118.964 182.451 120.574 182.453 122.254V181.18C182.451 182.859 181.784 184.469 180.596 185.657C179.409 186.844 177.799 187.512 176.119 187.514Z" fill="white"/>
<path d="M146.123 182.523H74.8299C74.7406 182.524 74.6514 182.522 74.5635 182.517L108.282 163.527C108.924 163.158 110.364 163.028 111.499 163.237C111.81 163.285 112.112 163.383 112.392 163.527L135.021 176.27L136.105 176.88L146.123 182.523Z" fill="#E6E6E6"/>
<path d="M168.617 182.523H106.954L118.903 176.88L119.763 176.474L135.334 169.12C136.355 168.638 138.81 168.608 140.011 169.029C140.091 169.057 140.166 169.088 140.235 169.12L168.617 182.523Z" fill="#E6E6E6"/>
<path d="M176.119 187.514H65.7189C64.0396 187.512 62.4295 186.844 61.2421 185.657C60.0546 184.469 59.3867 182.859 59.3848 181.18V122.254C59.3867 120.574 60.0546 118.964 61.2421 117.777C62.4295 116.589 64.0396 115.921 65.7189 115.919H176.119C177.799 115.921 179.409 116.589 180.596 117.777C181.784 118.964 182.451 120.574 182.453 122.254V181.18C182.451 182.859 181.784 184.469 180.596 185.657C179.409 186.844 177.799 187.512 176.119 187.514ZM65.7189 116.303C64.1413 116.305 62.6289 116.933 61.5134 118.048C60.3979 119.164 59.7704 120.676 59.7687 122.254V181.18C59.7704 182.758 60.3979 184.27 61.5134 185.386C62.6289 186.501 64.1413 187.128 65.7189 187.13H176.119C177.697 187.128 179.209 186.501 180.325 185.386C181.44 184.27 182.068 182.758 182.069 181.18V122.254C182.068 120.676 181.44 119.164 180.325 118.048C179.209 116.933 177.697 116.305 176.119 116.303H65.7189Z" fill="#3F3D56"/>
<path d="M176.118 182.907H65.7177C65.2597 182.907 64.8206 182.725 64.4968 182.401C64.1729 182.077 63.9908 181.638 63.9902 181.18V122.253C63.9908 121.795 64.1729 121.356 64.4968 121.032C64.8206 120.709 65.2597 120.526 65.7177 120.526H176.118C176.576 120.526 177.015 120.709 177.339 121.032C177.663 121.356 177.845 121.795 177.846 122.253V181.18C177.845 181.638 177.663 182.077 177.339 182.401C177.015 182.725 176.576 182.907 176.118 182.907ZM65.7177 120.91C65.3615 120.91 65.02 121.052 64.7681 121.304C64.5162 121.556 64.3745 121.897 64.3741 122.253V181.18C64.3745 181.536 64.5162 181.878 64.7681 182.129C65.02 182.381 65.3615 182.523 65.7177 182.523H176.118C176.474 182.523 176.816 182.381 177.068 182.129C177.32 181.878 177.461 181.536 177.462 181.18V122.253C177.461 121.897 177.32 121.556 177.068 121.304C176.816 121.052 176.474 120.91 176.118 120.91H65.7177Z" fill="#CCCCCC"/>
<path d="M151.521 131.312C158.083 131.312 163.402 125.992 163.402 119.43C163.402 112.868 158.083 107.548 151.521 107.548C144.958 107.548 139.639 112.868 139.639 119.43C139.639 125.992 144.958 131.312 151.521 131.312Z" fill="#FF6584"/>
<path d="M156.486 162.69C164.798 162.69 171.535 154.256 171.535 143.853C171.535 133.45 164.798 125.016 156.486 125.016C148.175 125.016 141.438 133.45 141.438 143.853C141.438 154.256 148.175 162.69 156.486 162.69Z" fill="#F2F2F2"/>
<path d="M156.528 140.065H156.569L157.313 182.731H155.742L156.528 140.065Z" fill="#CCCCCC"/>
<path d="M159.096 168.312C159.142 168.399 159.151 168.501 159.122 168.596C159.092 168.69 159.027 168.769 158.94 168.815L156.781 169.951L156.435 169.292L158.593 168.156C158.68 168.11 158.782 168.101 158.877 168.13C158.971 168.159 159.05 168.225 159.096 168.312Z" fill="#CCCCCC"/>
<path d="M113.222 162.69C121.533 162.69 128.271 154.256 128.271 143.853C128.271 133.45 121.533 125.016 113.222 125.016C104.91 125.016 98.1729 133.45 98.1729 143.853C98.1729 154.256 104.91 162.69 113.222 162.69Z" fill="#F2F2F2"/>
<path d="M115.831 169.017C115.785 168.93 115.706 168.864 115.612 168.835C115.518 168.806 115.416 168.815 115.328 168.861L113.821 169.655L113.305 140.065H113.264L112.479 182.732H114.049L113.836 170.488L115.675 169.52C115.762 169.474 115.828 169.395 115.857 169.301C115.886 169.207 115.877 169.105 115.831 169.017Z" fill="#CCCCCC"/>
<path d="M134.802 100.443C145.333 100.443 153.893 120.287 153.893 133.469C153.893 146.651 145.356 157.337 134.824 157.337C124.293 157.337 115.756 146.651 115.756 133.469C115.756 120.287 124.271 100.443 134.802 100.443Z" fill="#FF7315"/>
<path d="M138.129 165.162C138.101 165.107 138.061 165.059 138.014 165.019C137.966 164.98 137.911 164.95 137.852 164.931C137.793 164.913 137.731 164.906 137.669 164.912C137.607 164.918 137.547 164.936 137.493 164.964L135.583 165.97L134.93 128.477H134.877L133.882 182.54H135.872L135.602 167.026L137.932 165.799C137.987 165.77 138.035 165.731 138.075 165.683C138.114 165.635 138.144 165.58 138.163 165.521C138.181 165.462 138.187 165.4 138.182 165.338C138.176 165.277 138.158 165.217 138.129 165.162Z" fill="#3F3D56"/>
</svg>
