<svg width="19" height="18" viewBox="0 0 19 18" fill="none" xmlns="http://www.w3.org/2000/svg">
<path d="M11.1145 8.99872L17.5592 2.56902C17.8414 2.2868 18 1.90402 18 1.5049C18 1.10577 17.8414 0.722997 17.5592 0.440774C17.277 0.158551 16.8942 0 16.4951 0C16.096 0 15.7132 0.158551 15.431 0.440774L9.00128 6.88546L2.57158 0.440774C2.28936 0.158551 1.90658 -2.9737e-09 1.50746 0C1.10833 2.9737e-09 0.725555 0.158551 0.443332 0.440774C0.161109 0.722997 0.0025578 1.10577 0.00255779 1.5049C0.00255779 1.90402 0.161109 2.2868 0.443332 2.56902L6.88802 8.99872L0.443332 15.4284C0.302855 15.5678 0.191356 15.7335 0.115266 15.9162C0.0391754 16.0988 0 16.2947 0 16.4925C0 16.6904 0.0391754 16.8863 0.115266 17.0689C0.191356 17.2516 0.302855 17.4173 0.443332 17.5567C0.582662 17.6971 0.748427 17.8086 0.931065 17.8847C1.1137 17.9608 1.3096 18 1.50746 18C1.70531 18 1.90121 17.9608 2.08385 17.8847C2.26648 17.8086 2.43225 17.6971 2.57158 17.5567L9.00128 11.112L15.431 17.5567C15.5703 17.6971 15.7361 17.8086 15.9187 17.8847C16.1014 17.9608 16.2972 18 16.4951 18C16.693 18 16.8889 17.9608 17.0715 17.8847C17.2541 17.8086 17.4199 17.6971 17.5592 17.5567C17.6997 17.4173 17.8112 17.2516 17.8873 17.0689C17.9634 16.8863 18.0026 16.6904 18.0026 16.4925C18.0026 16.2947 17.9634 16.0988 17.8873 15.9162C17.8112 15.7335 17.6997 15.5678 17.5592 15.4284L11.1145 8.99872Z" fill="white"/>
</svg>
